<svg id="svg" version="1.1" xmlns="http://www.w3.org/2000/svg" xmlns:xlink="http://www.w3.org/1999/xlink" width="400" height="89.8876404494382" viewBox="0, 0, 400,89.8876404494382"><g id="svgg"><path id="path0" d="M156.167 6.170 C 155.112 6.242,152.610 6.386,150.605 6.491 C 146.757 6.691,146.288 6.796,145.372 7.661 L 144.994 8.018 145.039 35.634 C 145.073 56.795,145.130 63.356,145.285 63.702 C 145.782 64.814,146.102 64.856,153.672 64.800 L 160.491 64.750 160.871 64.370 L 161.250 63.991 161.293 35.825 C 161.344 2.408,161.726 6.501,158.518 6.094 C 158.279 6.063,157.221 6.098,156.167 6.170 M190.750 19.438 C 190.108 19.472,188.083 19.649,186.250 19.831 C 184.417 20.014,181.604 20.279,180.000 20.421 C 178.396 20.563,176.408 20.797,175.583 20.942 L 174.083 21.205 173.025 22.278 C 172.043 23.273,171.972 23.395,172.041 23.967 C 172.156 24.920,172.655 28.628,172.827 29.803 C 172.931 30.518,173.154 31.127,173.519 31.696 L 174.057 32.535 174.904 32.422 C 178.394 31.954,179.605 31.830,182.250 31.672 C 192.031 31.085,193.308 31.304,193.918 33.667 C 195.115 38.300,194.319 39.094,187.917 39.654 C 183.878 40.007,179.725 40.485,177.500 40.853 C 176.761 40.975,176.136 41.214,175.533 41.607 C 175.047 41.923,174.464 42.252,174.238 42.338 C 173.619 42.573,171.944 43.675,171.719 43.995 C 171.610 44.150,171.018 44.908,170.403 45.680 C 169.093 47.325,168.890 47.756,168.572 49.565 C 167.872 53.541,168.589 58.028,170.236 59.988 C 170.578 60.395,171.003 61.013,171.182 61.363 C 171.368 61.728,171.808 62.186,172.212 62.436 C 172.599 62.676,173.217 63.161,173.585 63.515 C 176.564 66.380,187.931 66.693,190.456 63.979 C 190.710 63.707,191.179 63.330,191.500 63.140 C 191.821 62.950,192.576 62.267,193.178 61.622 C 194.675 60.016,195.860 60.454,197.158 63.090 C 198.094 64.993,197.887 64.944,204.551 64.839 L 210.186 64.750 210.512 64.333 C 211.033 63.666,210.910 33.497,210.377 31.333 C 209.653 28.398,208.551 25.650,207.769 24.833 C 207.374 24.421,206.885 23.841,206.683 23.544 C 206.480 23.247,205.850 22.734,205.282 22.404 C 204.714 22.074,204.057 21.621,203.821 21.398 C 202.677 20.319,195.219 19.201,190.750 19.438 M245.700 20.005 C 242.743 20.593,241.748 20.909,240.991 21.500 C 240.666 21.754,239.878 22.229,239.241 22.554 C 238.594 22.884,237.353 23.783,236.428 24.591 C 234.775 26.036,234.773 26.037,234.030 25.935 C 233.621 25.879,233.119 25.833,232.914 25.833 C 232.443 25.833,232.007 24.872,231.505 22.729 C 231.243 21.613,231.036 21.102,230.728 20.812 L 230.307 20.417 224.695 20.362 L 219.083 20.307 218.500 20.913 L 217.917 21.519 217.917 42.665 L 217.917 63.811 218.406 64.322 L 218.896 64.833 225.827 64.833 C 233.402 64.833,233.280 64.848,233.715 63.858 C 233.855 63.539,233.933 59.478,233.996 49.242 C 234.095 33.224,233.972 34.524,235.461 33.770 C 238.314 32.326,243.192 32.086,244.976 33.302 C 246.945 34.644,246.846 33.787,246.980 50.698 L 247.083 63.812 247.573 64.323 L 248.062 64.833 255.022 64.833 L 261.981 64.833 262.449 64.431 L 262.917 64.029 262.917 47.306 C 262.917 25.369,262.900 25.193,260.618 22.670 C 258.098 19.883,251.895 18.775,245.700 20.005 M271.667 20.453 C 270.977 20.503,270.643 20.621,270.319 20.931 L 269.889 21.342 270.097 22.749 C 270.245 23.751,270.482 24.503,270.922 25.366 C 271.283 26.075,271.766 27.476,272.087 28.747 C 272.388 29.941,272.899 31.441,273.222 32.083 C 273.545 32.725,274.039 34.143,274.322 35.235 C 274.625 36.410,275.069 37.640,275.410 38.250 C 275.772 38.897,276.210 40.141,276.590 41.598 C 276.922 42.873,277.441 44.404,277.743 45.000 C 278.046 45.596,278.535 47.049,278.830 48.228 C 279.126 49.408,279.658 50.983,280.012 51.728 C 280.366 52.474,280.884 53.930,281.162 54.965 C 281.441 56.000,281.931 57.350,282.251 57.965 C 282.572 58.580,282.992 59.721,283.186 60.500 C 283.791 62.931,284.868 63.822,287.623 64.172 C 289.796 64.447,290.565 65.507,289.940 67.365 C 288.909 70.429,287.490 71.041,281.552 70.985 L 277.477 70.946 276.846 71.432 C 275.592 72.396,275.318 72.874,275.062 74.545 C 274.040 81.229,274.731 82.310,280.263 82.678 C 284.592 82.966,291.000 82.512,292.917 81.780 C 293.283 81.640,294.124 81.324,294.786 81.076 C 296.155 80.564,297.654 79.373,298.705 77.962 C 299.065 77.479,299.648 76.783,300.001 76.417 C 300.353 76.050,300.837 75.304,301.076 74.759 C 301.315 74.213,301.685 73.538,301.897 73.259 C 302.462 72.516,302.754 71.896,303.239 70.410 C 303.477 69.680,303.856 68.783,304.081 68.417 C 304.774 67.289,305.123 66.432,305.562 64.784 C 305.794 63.913,306.243 62.686,306.560 62.058 C 306.912 61.363,307.368 59.971,307.725 58.498 C 308.049 57.168,308.541 55.593,308.820 54.998 C 309.098 54.403,309.448 53.391,309.596 52.749 C 310.351 49.490,310.549 48.825,311.086 47.735 C 311.407 47.086,311.825 45.886,312.015 45.069 C 312.556 42.748,312.976 41.397,313.411 40.579 C 313.631 40.164,313.974 39.096,314.174 38.204 C 314.700 35.847,315.150 34.358,315.607 33.454 C 315.829 33.016,316.273 31.554,316.594 30.204 C 316.916 28.847,317.428 27.219,317.738 26.561 C 319.007 23.869,319.321 21.467,318.495 20.772 L 317.962 20.323 311.023 20.370 L 304.083 20.417 303.153 20.853 C 302.027 21.381,301.866 21.811,301.323 25.765 C 300.953 28.458,300.664 29.787,300.167 31.083 C 299.677 32.360,299.388 33.659,298.909 36.743 C 298.664 38.319,298.219 40.368,297.903 41.377 C 297.591 42.372,297.151 44.363,296.926 45.801 C 296.281 49.918,295.744 51.383,295.144 50.667 C 293.819 49.085,292.541 45.659,291.843 41.812 C 291.531 40.092,291.140 38.544,290.814 37.729 C 290.525 37.007,290.152 35.704,289.986 34.833 C 289.136 30.383,288.971 29.668,288.568 28.680 C 288.327 28.092,287.913 26.517,287.648 25.180 C 286.643 20.125,287.202 20.423,278.667 20.402 C 275.321 20.394,272.171 20.417,271.667 20.453 M192.750 47.148 C 194.099 47.771,194.233 48.064,194.306 50.564 C 194.380 53.109,194.312 53.328,193.075 54.548 C 191.929 55.678,188.502 56.274,187.154 55.577 C 184.206 54.052,183.383 52.271,184.323 49.447 C 184.910 47.684,185.681 47.224,188.417 47.006 C 191.144 46.790,192.036 46.819,192.750 47.148 " stroke="none" fill="#101010" fill-rule="evenodd"></path><path id="path1" d="M117.349 4.531 C 116.611 5.534,116.647 3.983,116.701 32.833 C 116.755 62.254,116.667 59.828,117.706 60.484 C 118.283 60.848,120.232 60.353,121.126 59.615 C 121.558 59.258,122.341 58.749,122.865 58.484 C 123.390 58.219,124.070 57.782,124.377 57.512 C 124.684 57.243,125.602 56.637,126.417 56.167 C 127.231 55.696,128.140 55.099,128.435 54.839 C 128.731 54.580,129.448 54.119,130.028 53.816 C 132.490 52.528,134.510 49.996,135.465 47.000 C 136.366 44.173,136.358 44.313,136.302 31.500 L 136.250 19.583 135.424 17.027 L 134.599 14.470 133.260 12.968 C 132.524 12.142,131.635 11.321,131.286 11.143 C 130.937 10.965,130.371 10.566,130.029 10.256 C 129.686 9.947,128.733 9.306,127.911 8.833 C 127.089 8.360,126.262 7.829,126.074 7.654 C 125.886 7.479,125.252 7.104,124.667 6.820 C 124.081 6.537,123.185 5.982,122.676 5.587 C 121.429 4.621,120.826 4.339,119.611 4.154 C 119.046 4.067,118.421 3.960,118.222 3.916 C 117.945 3.853,117.743 3.995,117.349 4.531 M156.167 5.100 C 155.754 5.136,154.704 5.246,153.833 5.345 C 152.962 5.445,150.975 5.620,149.417 5.736 C 146.217 5.973,145.114 6.305,144.454 7.231 L 144.083 7.750 144.083 35.864 L 144.083 63.978 144.579 64.496 C 145.643 65.607,146.462 65.706,153.986 65.641 L 160.640 65.583 161.086 65.167 C 162.063 64.253,162.000 66.286,162.000 35.705 C 162.000 5.180,162.047 6.772,161.121 5.613 C 160.731 5.125,158.529 4.897,156.167 5.100 M159.818 6.264 C 161.493 6.486,161.343 3.480,161.293 35.825 L 161.250 63.991 160.871 64.370 L 160.491 64.750 153.672 64.800 C 146.102 64.856,145.782 64.814,145.285 63.702 C 145.130 63.356,145.073 56.795,145.039 35.634 L 144.994 8.018 145.372 7.661 C 146.288 6.796,146.757 6.691,150.605 6.491 C 152.610 6.386,155.112 6.242,156.167 6.170 C 157.221 6.098,158.279 6.063,158.518 6.094 C 158.758 6.124,159.342 6.201,159.818 6.264 M188.917 18.505 C 188.000 18.586,186.725 18.765,186.083 18.901 C 184.804 19.173,183.562 19.328,178.641 19.833 C 171.102 20.607,170.262 21.551,171.597 27.749 C 171.736 28.391,171.923 29.350,172.012 29.880 C 172.246 31.257,172.862 32.544,173.532 33.056 L 174.103 33.491 176.260 33.249 C 177.446 33.115,179.030 32.896,179.780 32.763 C 183.064 32.177,191.851 31.864,192.392 32.313 C 192.813 32.663,193.304 34.484,193.356 35.893 C 193.423 37.675,192.894 38.264,191.104 38.397 C 190.451 38.446,188.829 38.567,187.500 38.666 C 186.171 38.764,184.371 38.988,183.500 39.162 C 182.629 39.337,180.754 39.643,179.333 39.841 C 176.459 40.244,175.563 40.493,174.583 41.163 C 174.217 41.414,173.380 41.929,172.724 42.308 C 172.023 42.712,171.304 43.290,170.980 43.707 C 170.678 44.097,170.076 44.811,169.643 45.292 C 168.155 46.949,167.117 51.459,167.581 54.253 C 168.205 58.019,168.633 59.390,169.483 60.362 C 169.831 60.759,170.313 61.399,170.555 61.785 C 170.797 62.170,171.390 62.779,171.873 63.138 C 172.355 63.496,173.035 64.061,173.384 64.392 C 173.861 64.845,174.378 65.103,175.468 65.431 C 176.265 65.671,177.667 66.104,178.583 66.392 C 180.797 67.089,184.817 67.167,186.250 66.541 C 186.708 66.341,187.827 65.942,188.736 65.655 C 190.129 65.215,190.522 65.009,191.236 64.343 C 191.702 63.908,192.333 63.409,192.638 63.235 C 192.943 63.060,193.449 62.560,193.763 62.125 C 194.559 61.019,194.480 60.975,196.182 63.459 C 196.645 64.136,197.315 64.870,197.702 65.126 L 198.394 65.583 204.238 65.583 C 209.704 65.583,210.114 65.563,210.550 65.267 C 211.544 64.593,211.500 65.312,211.499 49.717 C 211.498 32.018,211.395 30.298,210.178 27.867 C 209.916 27.344,209.647 26.729,209.580 26.500 C 209.324 25.630,208.779 24.726,208.110 24.060 C 207.729 23.681,207.248 23.144,207.043 22.868 C 206.837 22.592,206.256 22.133,205.751 21.848 C 205.246 21.564,204.833 21.259,204.833 21.172 C 204.833 20.821,203.304 20.154,201.578 19.751 C 200.573 19.517,198.963 19.130,198.000 18.892 C 196.014 18.400,192.014 18.230,188.917 18.505 M248.557 18.498 C 247.900 18.571,247.000 18.748,246.557 18.891 C 246.113 19.035,244.821 19.385,243.686 19.668 C 241.569 20.196,240.569 20.599,240.165 21.086 C 240.039 21.238,239.365 21.649,238.668 21.999 C 237.906 22.382,236.887 23.103,236.111 23.808 L 234.820 24.981 234.149 24.744 C 232.871 24.293,232.565 23.952,232.245 22.627 C 231.874 21.087,231.634 20.619,230.943 20.092 L 230.385 19.667 224.651 19.667 C 218.249 19.668,218.232 19.671,217.499 20.873 C 217.173 21.408,217.168 21.756,217.167 42.558 C 217.167 66.288,217.067 64.468,218.411 65.256 L 219.113 65.667 225.837 65.667 C 233.353 65.667,233.519 65.643,234.374 64.444 L 234.750 63.917 234.834 50.083 C 234.881 42.475,234.968 36.137,235.029 36.000 C 235.089 35.862,235.184 35.544,235.239 35.292 C 235.490 34.149,237.806 33.493,241.699 33.465 L 243.814 33.449 244.634 34.075 L 245.455 34.700 245.763 36.392 C 246.039 37.911,246.080 39.404,246.160 51.030 C 246.262 65.662,246.140 64.455,247.599 65.289 C 248.243 65.657,248.321 65.661,255.050 65.664 C 262.597 65.667,262.416 65.691,263.283 64.555 L 263.750 63.943 263.806 54.096 C 263.891 39.049,263.536 27.591,262.898 24.750 C 262.331 22.226,259.859 20.273,256.238 19.489 C 255.373 19.302,254.271 19.013,253.789 18.847 C 252.739 18.485,250.202 18.316,248.557 18.498 M198.423 19.921 C 201.661 20.425,203.249 20.859,203.821 21.398 C 204.057 21.621,204.714 22.074,205.282 22.404 C 205.850 22.734,206.480 23.247,206.683 23.544 C 206.885 23.841,207.374 24.421,207.769 24.833 C 208.551 25.650,209.653 28.398,210.377 31.333 C 210.910 33.497,211.033 63.666,210.512 64.333 L 210.186 64.750 204.551 64.839 C 197.887 64.944,198.094 64.993,197.158 63.090 C 195.860 60.454,194.675 60.016,193.178 61.622 C 192.576 62.267,191.821 62.950,191.500 63.140 C 191.179 63.330,190.710 63.707,190.456 63.979 C 187.931 66.693,176.564 66.380,173.585 63.515 C 173.217 63.161,172.599 62.676,172.212 62.436 C 171.808 62.186,171.368 61.728,171.182 61.363 C 171.003 61.013,170.578 60.395,170.236 59.988 C 168.589 58.028,167.872 53.541,168.572 49.565 C 168.890 47.756,169.093 47.325,170.403 45.680 C 171.018 44.908,171.610 44.150,171.719 43.995 C 171.944 43.675,173.619 42.573,174.238 42.338 C 174.464 42.252,175.047 41.923,175.533 41.607 C 176.136 41.214,176.761 40.975,177.500 40.853 C 179.725 40.485,183.878 40.007,187.917 39.654 C 194.319 39.094,195.115 38.300,193.918 33.667 C 193.308 31.304,192.031 31.085,182.250 31.672 C 179.605 31.830,178.394 31.954,174.904 32.422 L 174.057 32.535 173.519 31.696 C 173.154 31.127,172.931 30.518,172.827 29.803 C 172.655 28.628,172.156 24.920,172.041 23.967 C 171.972 23.395,172.043 23.273,173.025 22.278 L 174.083 21.205 175.583 20.942 C 176.408 20.797,178.396 20.563,180.000 20.421 C 181.604 20.279,184.417 20.014,186.250 19.831 C 192.087 19.250,194.215 19.266,198.423 19.921 M254.870 20.002 C 258.404 20.663,259.093 20.983,260.618 22.670 C 262.900 25.193,262.917 25.369,262.917 47.306 L 262.917 64.029 262.449 64.431 L 261.981 64.833 255.022 64.833 L 248.062 64.833 247.573 64.323 L 247.083 63.812 246.980 50.698 C 246.846 33.787,246.945 34.644,244.976 33.302 C 243.192 32.086,238.314 32.326,235.461 33.770 C 233.972 34.524,234.095 33.224,233.996 49.242 C 233.933 59.478,233.855 63.539,233.715 63.858 C 233.280 64.848,233.402 64.833,225.827 64.833 L 218.896 64.833 218.406 64.322 L 217.917 63.811 217.917 42.665 L 217.917 21.519 218.500 20.913 L 219.083 20.307 224.695 20.362 L 230.307 20.417 230.728 20.812 C 231.036 21.102,231.243 21.613,231.505 22.729 C 232.007 24.872,232.443 25.833,232.914 25.833 C 233.119 25.833,233.621 25.879,234.030 25.935 C 234.773 26.037,234.775 26.036,236.428 24.591 C 237.353 23.783,238.594 22.884,239.241 22.554 C 239.878 22.229,240.666 21.754,240.991 21.500 C 243.164 19.801,249.910 19.073,254.870 20.002 M270.231 19.984 C 269.946 20.158,269.559 20.516,269.371 20.780 L 269.030 21.260 269.432 23.255 C 269.713 24.650,270.031 25.651,270.488 26.583 C 270.868 27.357,271.328 28.704,271.586 29.794 C 271.856 30.935,272.309 32.242,272.741 33.127 C 273.137 33.939,273.648 35.380,273.896 36.385 C 274.141 37.378,274.631 38.762,274.986 39.468 C 275.363 40.215,275.844 41.598,276.140 42.782 C 276.419 43.900,276.914 45.363,277.239 46.032 C 277.564 46.702,278.058 48.177,278.337 49.311 C 278.616 50.445,278.984 51.645,279.155 51.978 C 279.325 52.311,279.621 52.883,279.812 53.250 C 280.003 53.617,280.387 54.812,280.664 55.906 C 280.942 57.000,281.393 58.291,281.666 58.774 C 281.938 59.257,282.303 60.162,282.477 60.785 C 283.340 63.889,284.315 64.715,287.564 65.096 C 288.292 65.181,288.675 65.328,289.053 65.666 L 289.563 66.121 289.145 67.269 C 288.754 68.345,288.656 68.466,287.583 69.208 L 286.438 70.000 281.738 70.000 L 277.038 70.000 276.232 70.542 C 274.457 71.736,274.142 72.791,274.106 77.667 C 274.075 81.922,274.361 82.487,276.854 83.080 C 279.103 83.616,287.999 83.563,291.873 82.992 C 294.530 82.600,297.988 80.428,299.554 78.167 C 299.839 77.754,300.270 77.251,300.511 77.049 C 300.751 76.846,301.225 76.134,301.564 75.465 C 301.902 74.797,302.420 73.912,302.715 73.500 C 303.010 73.087,303.466 72.112,303.728 71.333 C 303.990 70.554,304.465 69.491,304.785 68.971 C 305.145 68.385,305.585 67.243,305.942 65.971 C 306.260 64.841,306.699 63.654,306.920 63.333 C 307.452 62.558,307.764 61.635,308.272 59.333 C 308.514 58.240,308.939 56.916,309.263 56.250 C 309.619 55.518,310.043 54.149,310.400 52.576 C 310.758 51.002,311.167 49.681,311.498 49.030 C 312.123 47.801,312.219 47.497,312.757 45.040 C 313.004 43.914,313.396 42.714,313.736 42.040 C 314.366 40.792,314.487 40.403,315.068 37.732 C 315.296 36.685,315.699 35.430,315.996 34.841 C 316.324 34.191,316.736 32.852,317.094 31.275 C 317.492 29.520,317.845 28.406,318.253 27.622 C 319.263 25.684,320.073 21.521,319.585 20.776 C 318.849 19.652,318.959 19.667,311.136 19.667 C 300.955 19.667,301.541 19.355,300.656 25.245 C 300.437 26.701,300.065 28.294,299.664 29.495 C 299.217 30.834,298.894 32.284,298.599 34.277 C 298.079 37.783,297.931 38.466,297.402 39.796 C 297.143 40.446,296.743 42.299,296.344 44.687 C 295.600 49.144,295.554 49.242,294.917 47.714 C 294.414 46.510,293.749 45.249,293.394 44.826 C 293.135 44.519,292.832 43.243,292.248 40.002 C 291.987 38.551,291.616 37.122,291.319 36.419 C 291.022 35.719,290.657 34.314,290.408 32.917 C 289.803 29.521,289.523 28.381,288.994 27.164 C 288.726 26.547,288.325 25.038,288.067 23.673 C 287.291 19.572,287.554 19.673,277.667 19.670 C 271.166 19.668,270.719 19.687,270.231 19.984 M285.698 20.800 C 286.831 21.258,286.898 21.410,287.648 25.180 C 287.913 26.517,288.327 28.092,288.568 28.680 C 288.971 29.668,289.136 30.383,289.986 34.833 C 290.152 35.704,290.525 37.007,290.814 37.729 C 291.140 38.544,291.531 40.092,291.843 41.812 C 292.541 45.659,293.819 49.085,295.144 50.667 C 295.744 51.383,296.281 49.918,296.926 45.801 C 297.151 44.363,297.591 42.372,297.903 41.377 C 298.219 40.368,298.664 38.319,298.909 36.743 C 299.388 33.659,299.677 32.360,300.167 31.083 C 300.664 29.787,300.953 28.458,301.323 25.765 C 301.866 21.811,302.027 21.381,303.153 20.853 L 304.083 20.417 311.023 20.370 L 317.962 20.323 318.495 20.772 C 319.321 21.467,319.007 23.869,317.738 26.561 C 317.428 27.219,316.916 28.847,316.594 30.204 C 316.273 31.554,315.829 33.016,315.607 33.454 C 315.150 34.358,314.700 35.847,314.174 38.204 C 313.974 39.096,313.631 40.164,313.411 40.579 C 312.976 41.397,312.556 42.748,312.015 45.069 C 311.825 45.886,311.407 47.086,311.086 47.735 C 310.549 48.825,310.351 49.490,309.596 52.749 C 309.448 53.391,309.098 54.403,308.820 54.998 C 308.541 55.593,308.049 57.168,307.725 58.498 C 307.368 59.971,306.912 61.363,306.560 62.058 C 306.243 62.686,305.794 63.913,305.562 64.784 C 305.123 66.432,304.774 67.289,304.081 68.417 C 303.856 68.783,303.477 69.680,303.239 70.410 C 302.754 71.896,302.462 72.516,301.897 73.259 C 301.685 73.538,301.315 74.213,301.076 74.759 C 300.837 75.304,300.353 76.050,300.001 76.417 C 299.648 76.783,299.065 77.479,298.705 77.962 C 297.654 79.373,296.155 80.564,294.786 81.076 C 294.124 81.324,293.283 81.640,292.917 81.780 C 291.000 82.512,284.592 82.966,280.263 82.678 C 274.731 82.310,274.040 81.229,275.062 74.545 C 275.318 72.874,275.592 72.396,276.846 71.432 L 277.477 70.946 281.552 70.985 C 287.490 71.041,288.909 70.429,289.940 67.365 C 290.565 65.507,289.796 64.447,287.623 64.172 C 284.868 63.822,283.791 62.931,283.186 60.500 C 282.992 59.721,282.572 58.580,282.251 57.965 C 281.931 57.350,281.441 56.000,281.162 54.965 C 280.884 53.930,280.366 52.474,280.012 51.728 C 279.658 50.983,279.126 49.408,278.830 48.228 C 278.535 47.049,278.046 45.596,277.743 45.000 C 277.441 44.404,276.922 42.873,276.590 41.598 C 276.210 40.141,275.772 38.897,275.410 38.250 C 275.069 37.640,274.625 36.410,274.322 35.235 C 274.039 34.143,273.545 32.725,273.222 32.083 C 272.899 31.441,272.388 29.941,272.087 28.747 C 271.766 27.476,271.283 26.075,270.922 25.366 C 270.482 24.503,270.245 23.751,270.097 22.749 L 269.889 21.342 270.319 20.931 C 270.876 20.399,271.118 20.384,278.667 20.402 C 284.610 20.416,284.772 20.426,285.698 20.800 M188.417 47.006 C 185.681 47.224,184.910 47.684,184.323 49.447 C 183.383 52.271,184.206 54.052,187.154 55.577 C 188.502 56.274,191.929 55.678,193.075 54.548 C 194.312 53.328,194.380 53.109,194.306 50.564 C 194.202 47.007,193.528 46.600,188.417 47.006 M192.707 47.996 C 193.170 48.360,193.500 49.950,193.500 51.819 C 193.500 53.710,191.798 54.798,188.797 54.824 C 187.666 54.833,187.063 54.571,185.253 53.279 C 184.404 52.673,184.726 49.629,185.740 48.676 C 186.821 47.661,191.678 47.187,192.707 47.996 " stroke="none" fill="#17a3de" fill-rule="evenodd"></path><path id="path2" d="M103.132 13.400 C 102.426 13.779,101.639 14.288,101.382 14.530 C 101.126 14.772,100.467 15.233,99.917 15.555 C 99.367 15.876,98.654 16.377,98.333 16.667 C 98.013 16.958,97.225 17.502,96.583 17.876 C 95.942 18.251,95.117 18.835,94.750 19.176 C 94.383 19.516,93.746 20.004,93.333 20.259 C 91.766 21.228,90.184 23.092,89.655 24.592 C 88.720 27.245,88.651 27.645,88.501 31.333 C 88.160 39.756,88.385 67.805,88.804 69.083 C 88.894 69.358,89.214 70.394,89.515 71.386 C 90.148 73.469,91.693 75.485,93.500 76.583 C 94.005 76.890,94.601 77.336,94.825 77.574 C 95.049 77.813,95.697 78.268,96.265 78.585 C 96.832 78.903,97.620 79.433,98.015 79.763 C 98.410 80.093,99.225 80.612,99.825 80.916 C 100.425 81.220,101.161 81.724,101.459 82.035 C 101.757 82.346,102.600 82.893,103.332 83.250 L 104.664 83.899 105.186 83.408 C 106.238 82.418,106.167 84.974,106.167 48.249 C 106.167 10.704,106.268 13.962,105.066 13.016 C 104.529 12.594,104.692 12.561,103.132 13.400 " stroke="none" fill="#ef8e09" fill-rule="evenodd"></path></g></svg>