<?xml version="1.0" standalone="no"?>
<!DOCTYPE svg PUBLIC "-//W3C//DTD SVG 20010904//EN"
 "http://www.w3.org/TR/2001/REC-SVG-20010904/DTD/svg10.dtd">
<svg version="1.0" xmlns="http://www.w3.org/2000/svg"
 width="531.000000pt" height="531.000000pt" viewBox="0 0 531.000000 531.000000"
 preserveAspectRatio="xMidYMid meet">
<metadata>
Created by potrace 1.14, written by Peter Selinger 2001-2017
</metadata>
<g transform="translate(0.000000,531.000000) scale(0.100000,-0.100000)"
fill="#000000" stroke="none">
<path d="M2956 4871 c-4 -6 -12 -8 -18 -5 -7 4 -8 2 -4 -5 4 -6 1 -18 -7 -25
-8 -8 -13 -26 -12 -40 2 -15 -2 -26 -8 -26 -7 0 -6 -5 3 -10 13 -9 12 -12 -4
-25 -14 -11 -16 -15 -5 -15 12 0 12 -2 0 -9 -11 -7 -11 -9 0 -14 11 -4 11 -8
2 -14 -7 -5 -9 -14 -3 -22 4 -8 4 -25 -1 -38 -5 -15 -5 -23 2 -23 6 0 6 -7 -1
-20 -8 -15 -8 -20 2 -20 9 0 9 -3 -2 -10 -13 -9 -13 -10 0 -10 13 0 13 -1 0
-10 -11 -7 -11 -10 -2 -10 10 0 10 -5 2 -20 -8 -15 -8 -20 2 -20 9 0 9 -3 -2
-10 -13 -9 -13 -10 0 -10 13 0 13 -1 0 -10 -13 -9 -13 -10 0 -10 13 0 13 -1 0
-10 -13 -9 -13 -10 0 -10 13 0 13 -1 0 -10 -13 -9 -13 -10 0 -10 13 0 13 -1 0
-10 -13 -9 -13 -10 0 -10 13 0 13 -1 0 -10 -13 -9 -13 -10 0 -10 13 0 13 -1 0
-10 -13 -9 -13 -10 0 -10 12 0 13 -2 1 -9 -11 -7 -11 -9 0 -14 12 -5 11 -8 -1
-17 -11 -8 -12 -13 -3 -16 9 -4 9 -13 2 -31 -7 -20 -6 -28 3 -35 10 -6 10 -8
-2 -8 -13 0 -13 -1 0 -10 13 -9 13 -11 0 -21 -11 -8 -12 -12 -3 -15 9 -4 9
-13 2 -31 -7 -20 -6 -28 3 -35 10 -6 10 -8 -2 -8 -13 0 -13 -1 0 -10 13 -9 13
-11 0 -20 -13 -8 -12 -11 5 -25 11 -9 14 -14 8 -10 -7 3 -13 3 -14 -2 0 -4 -2
-18 -3 -30 -2 -13 2 -23 7 -23 5 0 4 -7 -3 -15 -9 -11 -9 -15 -1 -15 7 0 9 -5
5 -12 -11 -17 -12 -68 -2 -68 5 0 4 -9 -2 -20 -8 -14 -8 -20 0 -20 6 0 8 -5 4
-12 -11 -17 -11 -78 -1 -78 4 0 5 -5 1 -12 -12 -18 -11 -58 1 -58 5 0 3 -5 -5
-10 -11 -7 -11 -10 -2 -10 8 0 10 -5 5 -12 -13 -22 -9 -62 7 -76 13 -11 13
-11 -1 -7 -10 4 -16 0 -16 -10 0 -8 5 -15 11 -15 6 0 4 -5 -4 -10 -13 -9 -13
-10 0 -10 13 0 13 -1 0 -10 -12 -8 -12 -10 -1 -10 11 0 11 -3 1 -15 -9 -11 -9
-15 -1 -15 7 0 9 -5 5 -11 -12 -19 -12 -79 0 -79 6 0 4 -5 -4 -10 -12 -8 -12
-10 -1 -10 11 0 11 -3 0 -16 -10 -13 -10 -17 0 -24 11 -6 11 -9 0 -13 -12 -5
-12 -6 0 -6 11 -1 11 -4 1 -16 -11 -13 -10 -18 6 -31 10 -9 14 -13 8 -10 -15
8 -25 -17 -14 -34 5 -8 4 -22 -1 -32 -7 -13 -6 -18 3 -18 10 0 10 -2 0 -9 -8
-4 -14 -12 -14 -16 0 -4 6 -12 14 -16 8 -6 9 -12 3 -16 -14 -11 -18 -43 -5
-43 5 0 10 -5 10 -11 0 -5 -5 -7 -11 -3 -7 4 -7 -1 1 -16 8 -15 8 -20 1 -16
-6 4 -11 2 -11 -3 0 -6 6 -11 13 -11 8 0 7 -4 -3 -10 -12 -8 -12 -10 -1 -10
11 0 11 -3 1 -15 -11 -13 -10 -18 6 -31 10 -9 13 -13 7 -9 -7 3 -13 3 -14 -2
0 -4 -2 -18 -3 -30 -2 -13 2 -23 7 -23 5 0 4 -7 -3 -15 -10 -12 -10 -15 0 -15
9 0 9 -4 2 -13 -7 -8 -7 -18 -2 -27 5 -8 4 -22 -2 -33 -7 -14 -7 -22 2 -27 9
-6 9 -9 -1 -13 -12 -5 -12 -6 0 -6 11 -1 11 -4 0 -17 -10 -13 -10 -17 0 -24
11 -6 11 -9 0 -13 -12 -5 -12 -6 0 -6 11 -1 11 -4 0 -17 -10 -13 -10 -17 0
-24 8 -5 10 -13 5 -21 -12 -19 -12 -49 -1 -49 5 0 4 -7 -3 -15 -9 -11 -9 -15
-1 -15 7 0 9 -5 5 -12 -11 -18 -12 -68 -2 -68 5 0 6 -5 2 -12 -11 -17 -11 -78
-1 -78 4 0 5 -6 1 -12 -11 -18 -12 -48 -2 -48 5 0 6 -6 2 -12 -11 -18 -12 -48
-2 -54 4 -3 8 -10 8 -15 0 -6 -4 -8 -8 -5 -4 2 -8 -4 -8 -15 0 -10 4 -19 9
-19 4 0 5 -6 0 -12 -10 -16 -12 -58 -3 -58 4 0 6 -10 4 -23 -1 -12 -3 -22 -4
-22 -1 0 -3 -17 -4 -37 -1 -21 2 -38 7 -38 4 0 5 -5 2 -11 -12 -18 -12 -69 -1
-69 6 0 4 -5 -4 -10 -8 -5 -10 -10 -4 -10 7 0 12 -10 13 -22 2 -49 6 -66 13
-62 4 3 8 0 8 -5 0 -6 12 -11 26 -11 17 0 23 4 18 12 -6 10 -4 10 8 0 17 -14
51 -6 41 11 -4 6 2 8 16 4 14 -3 26 1 34 12 18 26 62 52 72 44 4 -5 5 -2 1 5
-4 7 -1 12 9 12 9 0 13 5 10 10 -4 6 -3 10 2 9 21 -4 44 2 39 10 -3 5 4 11 15
14 12 3 18 10 14 16 -9 15 8 14 24 -2 10 -10 11 -8 5 7 -5 13 -4 17 3 13 6 -4
13 0 17 8 3 8 12 15 20 15 9 0 20 9 26 20 6 11 16 18 21 14 6 -3 17 2 25 12 9
11 12 12 8 4 -6 -11 -2 -10 13 3 11 9 23 14 28 10 4 -5 5 0 2 9 -3 10 -3 17 1
17 17 -2 51 14 46 22 -3 5 2 9 11 9 10 0 13 -5 9 -12 -4 -8 -3 -10 2 -5 5 5 9
14 9 20 1 7 7 11 14 9 9 -2 11 3 7 13 -4 13 -2 14 14 5 13 -7 21 -7 26 2 5 7
2 9 -7 4 -8 -4 -5 0 5 8 11 9 26 16 34 16 7 0 10 5 7 10 -5 9 16 15 38 11 5
-1 6 3 3 8 -5 8 16 23 36 25 3 1 10 5 15 10 5 5 2 6 -6 1 -9 -5 -12 -4 -7 3 4
7 13 12 21 12 8 0 17 5 21 12 5 7 3 8 -6 3 -9 -6 -11 -4 -5 4 4 7 15 11 25 8
11 -3 17 1 16 12 0 9 5 15 13 13 8 -2 11 3 8 13 -5 10 0 15 14 15 11 0 18 4
14 10 -3 5 3 18 13 28 10 10 17 23 15 29 -2 5 4 16 14 24 15 12 16 12 10 -4
-4 -11 -3 -16 3 -12 6 4 8 17 6 30 -3 15 1 26 11 29 8 4 13 13 10 20 -3 8 1
20 8 26 8 7 12 16 9 21 -3 5 0 9 6 9 8 0 7 6 -1 21 -7 13 -7 19 -1 15 6 -3 13
-2 17 4 3 5 0 10 -7 10 -10 0 -10 2 1 9 7 5 10 14 7 20 -4 6 -3 11 2 11 6 0 8
10 4 22 -4 16 -2 19 9 13 11 -6 11 -5 2 5 -9 9 -9 18 -1 33 7 14 7 22 -2 27
-9 6 -9 9 -1 15 9 5 9 11 -1 23 -8 10 -9 13 -1 9 14 -9 13 109 -2 133 -7 13
-6 13 7 2 14 -12 16 -10 11 10 -3 13 -11 29 -17 37 -9 12 -8 13 3 6 11 -7 13
-1 8 29 -4 24 -2 34 5 30 7 -4 7 0 -1 13 -6 11 -8 23 -4 26 3 4 0 14 -8 24
-11 14 -11 15 0 9 10 -7 12 -3 6 14 -5 17 -4 21 6 15 11 -6 12 -5 2 6 -16 16
-17 33 -1 23 7 -5 8 -3 3 6 -11 17 -12 110 -1 110 5 0 3 6 -3 13 -6 8 -8 17
-4 20 3 4 0 14 -8 24 -9 11 -10 14 -1 9 6 -4 12 -3 12 1 0 5 -6 15 -12 22 -8
9 -8 11 -2 8 7 -4 14 0 18 8 3 8 1 15 -4 15 -5 0 -7 7 -4 15 4 9 1 15 -7 15
-8 0 -5 6 7 15 10 8 14 15 8 15 -5 0 -9 15 -8 32 1 18 -2 38 -7 45 -7 7 -6 14
2 19 7 4 9 3 6 -3 -3 -5 0 -10 8 -10 12 0 12 4 -1 21 -16 24 -19 40 -4 31 5
-3 7 0 4 9 -10 27 -10 266 1 270 5 3 1 5 -10 5 -16 1 -17 3 -6 10 12 8 12 12
2 24 -9 12 -9 17 0 23 8 5 9 3 4 -6 -5 -8 -4 -11 3 -6 7 4 8 17 2 35 -5 19 -4
33 3 41 9 8 8 10 -4 5 -10 -4 -16 0 -16 9 0 8 5 12 10 9 5 -3 7 0 5 8 -3 8
-10 13 -14 12 -5 -1 -8 16 -6 38 3 28 0 39 -9 39 -11 0 -11 3 1 10 10 6 11 10
3 10 -7 0 -12 3 -12 8 4 21 -2 32 -13 26 -9 -5 -9 -2 1 9 9 11 10 17 2 17 -6
0 -10 3 -10 8 3 20 -2 33 -11 27 -6 -4 -10 -3 -9 2 4 24 -2 53 -11 48 -5 -3
-10 3 -10 15 0 12 -4 18 -10 15 -5 -3 -10 1 -10 9 0 9 -4 16 -10 16 -5 0 -10
7 -10 15 0 9 -7 18 -15 21 -8 4 -12 10 -9 15 3 5 -2 9 -11 9 -9 0 -13 5 -10
10 3 6 1 10 -5 10 -6 0 -27 17 -45 38 -19 20 -35 34 -35 30 0 -4 -11 4 -25 18
-14 14 -30 22 -35 19 -6 -3 -10 -1 -10 5 0 6 -3 9 -7 7 -5 -3 -17 5 -28 16
-11 11 -14 16 -6 12 10 -6 12 -4 7 4 -6 9 -11 9 -24 -1 -13 -11 -15 -10 -9 4
3 10 1 20 -5 24 -7 4 -8 3 -4 -4 4 -7 1 -12 -8 -12 -9 0 -15 6 -14 13 2 6 -3
11 -9 9 -7 -1 -13 3 -13 9 0 5 -4 8 -9 5 -5 -3 -11 1 -15 9 -3 8 -14 15 -25
15 -11 0 -22 9 -26 20 -3 11 -15 20 -26 20 -10 0 -28 9 -39 20 -11 11 -24 20
-30 20 -5 0 -10 5 -10 10 0 6 -8 10 -18 10 -9 0 -23 9 -30 20 -7 12 -17 18
-22 15 -5 -3 -13 3 -19 12 -8 14 -10 15 -11 3 0 -13 -2 -13 -9 0 -6 8 -7 19
-3 25 3 5 -2 4 -11 -4 -9 -7 -17 -10 -17 -5 0 11 -57 50 -67 46 -4 -2 -10 5
-14 15 -5 14 -15 19 -38 17 -17 -1 -31 3 -31 8 0 6 -9 8 -20 5 -12 -3 -23 1
-29 10 -6 11 -10 12 -15 4z m114 -3067 c0 -8 -19 -13 -24 -6 -3 5 1 9 9 9 8 0
15 -2 15 -3z"/>
<path d="M2321 4431 c-1 -8 -7 -11 -17 -7 -8 3 -12 2 -9 -4 3 -6 -1 -10 -10
-10 -9 0 -13 -4 -10 -10 3 -5 1 -11 -4 -11 -6 -1 -17 -2 -23 -3 -7 -1 -12 -7
-11 -14 2 -7 -4 -9 -14 -5 -10 4 -14 2 -10 -4 8 -13 -17 -36 -27 -25 -4 4 -14
-1 -21 -11 -7 -10 -16 -18 -19 -18 -20 3 -26 0 -21 -8 3 -5 -11 -15 -30 -21
-19 -6 -33 -15 -30 -20 6 -10 -23 -22 -36 -15 -5 4 -6 -2 -2 -11 5 -13 3 -16
-10 -11 -9 3 -17 2 -17 -4 0 -5 -8 -13 -17 -16 -26 -10 -43 -29 -35 -39 4 -5
-2 -2 -12 6 -11 8 -17 10 -13 4 4 -7 -1 -18 -10 -25 -14 -12 -16 -12 -9 1 4 8
-2 4 -13 -10 -11 -14 -21 -20 -21 -15 0 6 -4 5 -8 -1 -10 -16 -106 -88 -96
-73 4 8 3 10 -4 5 -7 -4 -12 -14 -12 -22 0 -8 -4 -12 -10 -9 -5 3 -19 -6 -32
-20 -12 -14 -30 -25 -41 -25 -16 0 -17 -2 -7 -15 11 -13 10 -14 -4 -9 -18 7
-49 -13 -40 -27 3 -5 -3 -6 -13 -2 -10 3 -15 3 -11 -1 10 -11 -14 -34 -29 -29
-7 3 -13 0 -13 -7 0 -15 -26 -41 -34 -33 -3 4 -6 -1 -6 -9 0 -9 -7 -18 -15
-22 -8 -3 -14 -9 -13 -13 3 -13 -25 -63 -35 -63 -5 0 -4 -7 3 -16 11 -12 11
-15 -1 -12 -9 2 -14 -6 -14 -24 1 -20 -2 -24 -11 -17 -9 7 -12 5 -9 -8 1 -10
-3 -28 -11 -40 -9 -15 -10 -24 -3 -28 5 -4 6 -12 2 -18 -10 -15 -10 -38 0 -54
5 -8 3 -13 -3 -13 -7 0 -8 -6 0 -19 7 -14 7 -22 0 -26 -8 -5 -7 -12 2 -23 11
-13 11 -14 -1 -7 -11 6 -13 4 -8 -8 3 -10 2 -17 -3 -17 -6 0 -10 -5 -10 -11 0
-5 5 -7 10 -4 6 3 10 1 10 -4 0 -6 -5 -11 -11 -11 -8 0 -8 -4 0 -14 8 -10 9
-16 1 -21 -7 -4 -7 -13 1 -27 8 -15 8 -19 0 -13 -8 4 -10 -2 -7 -19 3 -16 0
-26 -7 -26 -8 0 -8 -3 -2 -8 12 -9 13 -32 1 -51 -7 -11 -6 -12 5 -6 12 8 12 6
0 -8 -11 -14 -11 -17 0 -17 11 0 11 -2 -1 -10 -13 -9 -13 -10 0 -10 13 0 13
-1 0 -10 -13 -9 -13 -10 0 -10 13 0 13 -1 0 -10 -13 -9 -13 -10 0 -10 13 0 13
-1 0 -10 -13 -9 -13 -10 0 -10 12 0 13 -2 1 -9 -11 -7 -11 -9 0 -14 12 -4 11
-7 -1 -16 -9 -7 -11 -14 -5 -18 6 -5 10 -15 10 -23 0 -8 -4 -18 -10 -22 -7 -5
-7 -8 0 -8 6 0 10 -16 10 -35 0 -19 -2 -35 -6 -35 -3 0 -5 -18 -5 -40 1 -22 5
-40 9 -40 5 0 5 -6 1 -12 -12 -19 -12 -48 -1 -48 5 0 4 -7 -3 -15 -10 -12 -10
-15 0 -15 9 0 9 -4 2 -13 -7 -8 -7 -18 -2 -27 5 -8 5 -21 -1 -32 -7 -13 -6
-18 3 -18 9 0 9 -3 -2 -10 -13 -9 -13 -10 0 -10 13 0 13 -1 0 -10 -13 -9 -13
-10 0 -10 13 0 13 -1 0 -10 -13 -9 -13 -10 0 -10 12 0 12 -2 2 -9 -17 -10 -17
-22 -1 -32 10 -6 10 -11 0 -23 -9 -11 -10 -16 -2 -16 6 0 11 -5 11 -11 0 -5
-4 -8 -8 -5 -5 3 -9 -1 -9 -9 0 -8 3 -15 7 -15 3 0 6 -9 6 -20 0 -11 -3 -20
-6 -20 -4 0 -7 -7 -7 -15 0 -8 4 -15 9 -15 5 0 4 -9 -2 -20 -8 -15 -8 -20 1
-20 8 0 8 -4 -1 -15 -8 -10 -9 -15 -1 -15 7 0 8 -8 0 -27 -7 -20 -6 -28 3 -35
10 -6 10 -8 -2 -8 -13 0 -13 -1 0 -10 13 -9 13 -11 0 -20 -13 -9 -13 -11 0
-20 13 -9 13 -10 0 -10 -9 0 -11 -3 -5 -8 9 -6 11 -27 5 -42 -7 -20 -7 -40 2
-40 6 0 5 -7 -3 -16 -10 -13 -10 -17 0 -24 11 -6 11 -9 0 -13 -12 -5 -12 -6 0
-6 11 -1 11 -4 0 -18 -8 -9 -9 -14 -4 -11 7 4 11 -8 10 -33 0 -21 -2 -39 -5
-39 -11 0 -6 -40 5 -40 5 0 3 -5 -5 -10 -13 -9 -13 -10 0 -10 13 0 13 -1 0
-10 -13 -9 -13 -10 0 -10 13 0 13 -1 0 -10 -13 -9 -13 -10 0 -10 13 0 13 -1 0
-10 -8 -5 -10 -10 -4 -10 12 0 12 -49 0 -68 -4 -7 -3 -12 2 -12 10 0 9 -30 -2
-48 -4 -7 -2 -12 4 -12 6 0 9 -4 6 -9 -4 -5 0 -12 6 -14 10 -4 10 -6 1 -6 -7
-1 -13 -8 -13 -17 0 -9 5 -12 13 -8 8 5 8 2 -2 -9 -11 -14 -11 -17 0 -17 11 0
11 -2 -1 -10 -14 -9 -7 -14 15 -11 6 1 3 -4 -6 -11 -13 -10 -14 -17 -5 -31 8
-14 8 -20 -4 -27 -11 -7 -11 -10 -2 -10 7 0 11 -4 7 -9 -3 -5 -1 -13 5 -16 8
-5 7 -12 -2 -22 -15 -19 -15 -23 4 -34 10 -7 10 -9 -2 -9 -13 0 -13 -1 0 -10
12 -8 12 -10 -5 -10 -19 -1 -19 -1 -2 -11 14 -8 16 -14 6 -25 -9 -11 -9 -14 1
-14 9 0 10 -3 1 -13 -6 -8 -8 -17 -4 -21 12 -12 12 -36 0 -36 -7 0 -6 -4 3 -9
8 -6 18 -7 24 -4 5 3 6 1 2 -6 -4 -6 -13 -8 -19 -5 -9 5 -9 4 0 -6 6 -7 9 -19
5 -28 -4 -12 -1 -14 14 -8 15 6 16 5 7 -5 -10 -10 -9 -17 5 -33 9 -11 11 -16
4 -12 -11 7 -11 4 -1 -12 7 -12 18 -18 24 -15 5 3 5 0 -2 -7 -9 -10 -8 -16 3
-27 8 -8 12 -19 9 -23 -3 -5 3 -7 14 -5 17 3 19 0 11 -20 -7 -19 -6 -23 5 -19
9 4 19 -4 27 -20 7 -16 17 -25 25 -22 8 3 11 1 8 -4 -3 -6 1 -13 9 -16 9 -3
13 -10 10 -15 -3 -5 2 -6 10 -3 9 3 16 1 16 -5 0 -7 16 -21 35 -32 19 -12 32
-25 29 -30 -3 -5 2 -6 10 -3 10 4 18 -1 22 -11 4 -10 13 -14 22 -10 9 3 13 3
10 -1 -8 -8 16 -34 31 -34 6 0 11 -4 11 -9 0 -5 9 -11 21 -14 13 -4 18 -10 13
-18 -4 -7 -3 -10 3 -6 6 4 13 1 16 -7 4 -9 16 -13 31 -12 23 3 24 1 14 -12 -9
-11 -9 -13 -1 -9 6 4 19 -1 29 -10 10 -10 20 -17 23 -16 3 0 5 -3 3 -9 -1 -5
2 -7 8 -3 5 3 10 1 10 -4 0 -6 9 -11 20 -11 11 0 20 -4 20 -10 0 -5 7 -10 15
-10 8 0 15 -4 15 -10 0 -5 7 -10 15 -10 8 0 15 -5 15 -11 0 -5 3 -8 8 -6 10 7
32 -19 24 -27 -3 -4 1 -4 10 -1 10 4 25 -2 37 -14 12 -12 27 -21 35 -21 8 0
18 -9 21 -20 3 -11 15 -20 26 -20 10 0 28 -9 39 -20 11 -11 25 -20 30 -20 6 0
10 -4 10 -10 0 -5 9 -10 21 -10 13 0 18 -4 13 -12 -5 -9 -2 -8 9 1 14 11 15
16 5 29 -13 16 -13 19 4 40 6 7 6 12 1 12 -13 0 -11 43 2 53 6 4 4 11 -5 17
-13 9 -13 10 0 10 13 0 13 1 0 10 -13 8 -13 11 -1 19 8 5 10 14 5 22 -11 18
-13 49 -2 43 4 -3 8 0 8 5 0 6 -6 11 -12 11 -9 0 -8 4 2 10 8 5 10 10 4 10
-13 0 -11 80 1 101 6 8 4 10 -4 4 -10 -6 -11 -3 -2 14 8 14 8 21 1 21 -5 0
-10 5 -10 11 0 5 6 7 13 3 9 -5 9 -4 0 6 -8 9 -9 19 -3 31 7 12 6 20 0 24 -8
5 -7 11 1 21 8 10 8 18 0 27 -8 10 -7 17 1 25 9 9 9 12 -3 12 -12 0 -12 2 1
10 10 6 11 10 3 10 -7 0 -13 5 -13 11 0 5 5 7 11 3 7 -4 7 1 -1 15 -9 17 -9
26 1 37 6 8 7 14 2 14 -11 0 -10 100 0 117 4 7 2 15 -4 19 -8 4 -7 9 2 15 8 5
9 9 3 9 -13 0 -11 80 1 101 6 8 4 10 -4 4 -10 -6 -11 -3 -2 14 7 11 8 21 3 21
-10 0 -9 51 2 68 4 7 2 12 -5 12 -8 0 -8 4 -1 13 5 7 6 21 1 32 -11 28 -11 37
1 30 6 -4 7 2 1 17 -5 14 -5 31 0 40 6 11 5 19 -1 23 -8 5 -8 11 0 20 8 9 8
15 0 20 -5 3 -10 11 -10 16 0 6 4 8 8 5 4 -2 8 4 8 14 0 10 -4 16 -8 14 -11
-7 -10 4 3 28 9 16 8 19 -3 12 -11 -6 -11 -5 0 8 7 9 9 19 4 22 -10 6 -8 48 2
65 4 5 3 12 -2 15 -10 6 -9 57 2 74 4 7 2 12 -5 12 -8 0 -8 4 -1 13 5 7 6 21
1 32 -10 27 -11 37 -1 31 4 -2 8 6 8 19 0 13 -4 21 -8 19 -4 -3 -6 5 -4 18 3
13 5 27 5 31 1 5 6 5 13 1 7 -4 8 -3 4 5 -4 6 -12 9 -17 6 -10 -7 -8 23 4 42
4 6 3 15 -3 18 -8 5 -7 11 1 21 9 11 9 14 -1 14 -9 0 -9 4 1 17 12 15 12 16
-1 8 -13 -7 -13 -6 -2 7 10 12 10 17 1 20 -9 3 -9 9 1 27 9 18 9 22 0 16 -9
-6 -9 -2 -1 14 8 14 8 21 1 21 -5 0 -10 5 -10 11 0 5 4 8 8 5 5 -3 9 1 9 9 0
8 -4 15 -8 15 -8 0 -5 73 5 88 3 6 0 13 -6 15 -10 4 -9 8 2 16 13 10 13 12 0
21 -13 9 -13 10 0 10 12 0 12 2 1 9 -7 5 -9 11 -4 14 8 5 8 22 -1 97 -2 14 1
33 7 44 6 13 5 21 -4 27 -8 5 -9 9 -3 9 12 0 12 29 -1 49 -5 9 -4 12 2 8 6 -4
13 0 17 8 3 8 0 17 -6 21 -7 5 -8 2 -3 -6 5 -8 4 -11 -3 -6 -6 4 -9 13 -6 21
4 8 10 13 14 10 10 -6 0 36 -12 52 -5 7 -5 14 1 18 12 7 10 32 -3 54 -6 9 -5
12 2 7 6 -3 13 -2 17 4 3 5 1 10 -6 10 -7 0 -9 3 -6 7 4 3 1 13 -6 21 -10 13
-9 14 2 7 11 -6 13 -2 7 19 -5 20 -4 26 5 20 8 -5 9 -3 4 7 -5 7 -8 26 -7 40
1 15 -2 39 -8 54 -7 19 -7 24 1 19 9 -5 10 1 5 20 -5 21 -4 26 6 20 7 -5 5 5
-6 20 -10 16 -13 26 -8 22 7 -4 11 11 10 44 0 27 -4 47 -9 44 -5 -3 -9 -1 -9
4 0 6 6 12 14 15 15 6 11 53 -7 75 -7 9 -5 11 8 6 14 -6 16 -4 10 6 -13 20
-14 70 -2 70 6 0 2 6 -8 14 -16 11 -17 17 -7 28 14 18 13 67 -2 87 -8 11 -8
13 0 8 7 -4 14 3 16 18 3 14 1 22 -5 18 -5 -3 -6 3 -2 16 4 14 2 21 -7 21 -8
0 -6 5 5 11 9 6 15 15 11 20 -11 18 -11 59 -1 59 8 0 8 3 0 11 -6 6 -8 23 -3
44 4 19 5 36 3 39 -9 9 -8 106 1 106 5 0 3 7 -4 15 -10 12 -10 15 1 16 8 0 5
4 -6 9 l-20 9 20 0 c17 1 17 3 5 11 -13 9 -13 10 0 10 13 0 13 1 0 10 -13 9
-13 10 0 11 10 0 8 3 -5 9 l-20 9 20 0 c17 1 17 3 5 11 -9 6 -10 10 -3 10 8 0
9 9 3 28 -4 16 -4 36 2 45 7 13 5 17 -9 18 -16 0 -16 1 2 9 11 5 15 9 10 9 -6
1 -9 24 -8 54 2 32 -1 47 -6 38 -7 -11 -9 -11 -14 0 -5 12 -6 12 -6 0z"/>
<path d="M2340 3630 c0 -5 5 -10 10 -10 6 0 10 5 10 10 0 6 -4 10 -10 10 -5 0
-10 -4 -10 -10z"/>
<path d="M2343 515 c0 -8 4 -12 9 -9 5 3 6 10 3 15 -9 13 -12 11 -12 -6z"/>
</g>
</svg>
